<svg width="30" height="29" viewBox="0 0 30 29" fill="none" xmlns="http://www.w3.org/2000/svg">
<path d="M27.8365 15.3863V25.8935C27.8365 27.3701 26.6383 28.5685 25.1619 28.5685H2.67453C1.19819 28.5685 0 27.3701 0 25.8935V3.40253C0 1.92596 1.19819 0.727578 2.67453 0.727578H13.394C14.2713 0.727578 14.9987 1.45516 14.9987 2.33255C14.9987 3.20993 14.2713 3.93752 13.394 3.93752H3.20943V25.3585H24.627V15.3863C24.627 14.5089 25.3545 13.7813 26.2317 13.7813C27.109 13.7813 27.8365 14.5089 27.8365 15.3863ZM28.2858 7.78948L16.1113 19.9658C15.6406 20.4366 15.0415 20.7148 14.3783 20.7362L10.9976 20.9502C10.9976 20.9502 10.8907 20.9502 10.8265 20.9502C10.1204 20.9502 9.43573 20.672 8.94362 20.1584C8.40871 19.6235 8.10916 18.8744 8.17335 18.104L8.38731 14.7015C8.4301 14.0595 8.70825 13.4389 9.15757 12.9681L17.6733 4.45109L21.332 0.791775C21.8241 0.278184 22.5088 0 23.2149 0C23.921 0 24.6056 0.278184 25.0978 0.791775L28.2858 3.98036C29.3342 5.02894 29.3342 6.71948 28.2858 7.76806V7.78948ZM21.225 10.2932L18.7859 7.85368L11.554 15.0867L11.3828 17.6761L13.9717 17.5049L21.2036 10.2718L21.225 10.2932ZM25.6327 5.88489L23.1935 3.44537L21.0539 5.58533L23.493 8.02485L25.6327 5.88489Z" fill="white"/>
</svg>
